<svg xmlns="http://www.w3.org/2000/svg" viewBox="0 0 181.42 53.86"><defs><style>.cls-1{fill:#fff;fill-opacity:0;}.cls-2{fill:#13b38b;}.cls-3{fill:#00386b;}</style></defs><g id="Laag_2" data-name="Laag 2"><g id="logo"><rect class="cls-1" width="181.42" height="53.86"/><path class="cls-2" d="M175.13,5.67H100.76a1.32,1.32,0,0,0-1.16.82l-2.42,6.67,7.27,20.14L111.06,15a1.35,1.35,0,0,1,1.16-.82h4.53a.57.57,0,0,1,.62.51.63.63,0,0,1-.05.31L108.7,38.87a1.32,1.32,0,0,1-1.16.81h-6.17a1.32,1.32,0,0,1-1.16-.81L94.05,21.81,84.8,47.37a.57.57,0,0,0,.26.76.56.56,0,0,0,.31.06h74.37a1.32,1.32,0,0,0,1.16-.82L175.7,6.49a.58.58,0,0,0-.26-.77A.65.65,0,0,0,175.13,5.67ZM127.28,38.8a.86.86,0,0,1-.85.88h-4.28a.86.86,0,0,1-.85-.88V15.05a.87.87,0,0,1,.85-.88h4.28a.87.87,0,0,1,.85.88Zm30,0a.86.86,0,0,1-.85.88h-4.28a.86.86,0,0,1-.85-.88v-2a9.7,9.7,0,0,1-7.74,3.57c-7.91,0-12-6.76-12-13.44,0-7.67,5.18-13.44,12-13.44a9.7,9.7,0,0,1,7.74,3.56v-2a.87.87,0,0,1,.85-.88h4.28a.87.87,0,0,1,.85.88Z"/><path class="cls-2" d="M144.38,19.47c-5,0-6.88,4.45-6.92,7.43,0,3.62,2.43,7.49,6.93,7.49s6.93-3.89,6.93-7.55C151.29,23.9,149.41,19.49,144.38,19.47Z"/><path class="cls-3" d="M90.3,19.38,91.88,15a.56.56,0,0,0-.26-.76.52.52,0,0,0-.3-.06H81.44a5.27,5.27,0,0,0-5.17,5.35V38.8a.87.87,0,0,0,.85.88H81.4a.86.86,0,0,0,.85-.88V21.08a.87.87,0,0,1,.85-.88h6A1.34,1.34,0,0,0,90.3,19.38Z"/><path class="cls-3" d="M40.16,9.92H32.88a1.33,1.33,0,0,0-1.16.82L25,29.2V10.79a.87.87,0,0,0-.86-.87H17.06a1.32,1.32,0,0,0-1.16.82L5.72,38.87a.57.57,0,0,0,.26.76.47.47,0,0,0,.31,0h4.53A1.32,1.32,0,0,0,12,38.87l7.23-20V38.81a.87.87,0,0,0,.87.87h6.56a1.33,1.33,0,0,0,1.17-.81l7.23-20V38.81a.86.86,0,0,0,.86.87h4.26a.87.87,0,0,0,.87-.87v-28A.87.87,0,0,0,40.16,9.92Z"/><path class="cls-3" d="M70.1,14.17H65.82a.87.87,0,0,0-.85.88v2a9.71,9.71,0,0,0-7.75-3.56c-6.86,0-12,5.77-12,13.44,0,6.68,4.14,13.44,12,13.44A9.7,9.7,0,0,0,65,36.8v2a.86.86,0,0,0,.85.88H70.1A.86.86,0,0,0,71,38.8V15.05A.88.88,0,0,0,70.1,14.17Zm-12,20.22c-4.5,0-6.93-3.87-6.93-7.49,0-3,1.91-7.4,6.92-7.43S65,23.9,65,26.84C65,30.5,62.58,34.39,58.08,34.39Z"/></g></g></svg>